<?xml version="1.0" encoding="UTF-8"?>
<!DOCTYPE svg PUBLIC "-//W3C//DTD SVG 1.1//EN" "http://www.w3.org/Graphics/SVG/1.1/DTD/svg11.dtd">
<svg xmlns="http://www.w3.org/2000/svg" version="1.1" width="1909px" height="921px" style="shape-rendering:geometricPrecision; text-rendering:geometricPrecision; image-rendering:optimizeQuality; fill-rule:evenodd; clip-rule:evenodd" xmlns:xlink="http://www.w3.org/1999/xlink">
<g><path style="opacity:0.991" fill="#262726" d="M 297.5,109.5 C 309.505,109.333 321.505,109.5 333.5,110C 338.103,110.111 342.436,111.111 346.5,113C 314.118,109.104 290.618,121.604 276,150.5C 266.227,179.911 269.227,207.911 285,234.5C 299.305,255.146 316.139,273.646 335.5,290C 365.975,315.48 397.309,339.813 429.5,363C 458.192,385.021 484.359,409.855 508,437.5C 518.161,449.81 526.827,463.143 534,477.5C 514.46,387.736 529.127,304.069 578,226.5C 622.935,161.262 684.769,122.762 763.5,111C 772.159,110.095 780.826,109.762 789.5,110C 780.203,114.576 772.037,120.743 765,128.5C 741.471,159.691 724.804,194.358 715,232.5C 690.16,321.395 695.494,408.395 731,493.5C 749.689,536.844 778.522,571.678 817.5,598C 868.568,626.425 918.901,625.091 968.5,594C 983.842,583.997 997.342,571.83 1009,557.5C 1008.26,527.794 1015.93,500.46 1032,475.5C 1056.09,440.022 1087.92,413.856 1127.5,397C 1155.1,385.02 1183.1,374.02 1211.5,364C 1263.03,347.38 1314.03,329.38 1364.5,310C 1393.47,297.986 1420.13,282.319 1444.5,263C 1468.94,238.527 1472.11,211.36 1454,181.5C 1450.53,176.066 1446.7,170.899 1442.5,166C 1442.83,165.833 1443.17,165.667 1443.5,165.5C 1464.43,185.019 1477.26,209.019 1482,237.5C 1482.33,361.167 1482.67,484.833 1483,608.5C 1486.59,628.522 1496.42,644.689 1512.5,657C 1517.84,660.115 1523.51,662.448 1529.5,664C 1462.76,674.391 1395.93,684.224 1329,693.5C 1317.84,693.438 1310.84,688.105 1308,677.5C 1307.67,565.167 1307.33,452.833 1307,340.5C 1288.44,349.191 1270.61,359.025 1253.5,370C 1204.76,406.158 1181.43,454.825 1183.5,516C 1182.83,550.174 1192,581.34 1211,609.5C 1229.42,633.545 1253.75,647.211 1284,650.5C 1291.74,649.685 1299.24,648.185 1306.5,646C 1282.24,663.21 1255.91,676.544 1227.5,686C 1184.95,697.351 1142.95,695.685 1101.5,681C 1047.02,659.513 1016.19,619.68 1009,561.5C 973.122,622.707 921.288,663.874 853.5,685C 754.663,707.273 670.829,681.44 602,607.5C 578.957,581.444 560.957,552.11 548,519.5C 553.071,556.894 543.404,589.894 519,618.5C 490.361,648.759 455.861,669.592 415.5,681C 387.774,689.389 359.441,693.389 330.5,693C 358.694,690.488 379.861,676.988 394,652.5C 409.846,622.93 408.846,593.93 391,565.5C 377.35,546.84 361.85,529.674 344.5,514C 302.456,479.62 260.122,445.62 217.5,412C 188.133,387.305 162.3,359.472 140,328.5C 116.103,293.35 108.77,255.017 118,213.5C 125.403,191.871 137.903,173.704 155.5,159C 186.364,134.7 221.364,119.7 260.5,114C 272.926,112.01 285.26,110.51 297.5,109.5 Z"/></g>
<g><path style="opacity:0.989" fill="#262726" d="M 803.5,109.5 C 877.878,117.589 937.044,151.589 981,211.5C 1007.74,249.869 1025.24,292.202 1033.5,338.5C 969.832,338.667 906.166,338.5 842.5,338C 858.55,336.899 869.05,328.733 874,313.5C 875.764,257.319 865.097,203.653 842,152.5C 835.32,139.985 826.82,128.819 816.5,119C 811.943,115.914 807.609,112.747 803.5,109.5 Z"/></g>
<g><path style="opacity:0.968" fill="#262726" d="M 356.5,114.5 C 357.097,113.861 357.93,113.528 359,113.5C 382.577,118.519 405.744,125.019 428.5,133C 453.789,140.965 478.789,140.299 503.5,131C 505.96,129.542 508.127,127.709 510,125.5C 510.667,188.167 510.667,250.833 510,313.5C 503.738,278.716 493.071,245.382 478,213.5C 461.962,182.458 439.796,156.625 411.5,136C 394.607,125.201 376.274,118.035 356.5,114.5 Z"/></g>
<g><path style="opacity:0.987" fill="#262726" d="M 1232.5,113.5 C 1234.86,113.337 1237.19,113.503 1239.5,114C 1217.1,116.117 1198.27,125.284 1183,141.5C 1175.01,153.617 1173.34,166.617 1178,180.5C 1181.24,187.989 1185.24,194.989 1190,201.5C 1197.67,210.833 1205.33,220.167 1213,229.5C 1225.96,254.612 1227.96,280.612 1219,307.5C 1198.7,349.574 1165.2,368.074 1118.5,363C 1080.65,354.822 1056.82,331.988 1047,294.5C 1042.16,267.196 1047.16,241.863 1062,218.5C 1079.59,190.906 1102.43,168.739 1130.5,152C 1162,132.336 1196,119.503 1232.5,113.5 Z"/></g>
<g><path style="opacity:0.987" fill="#262726" d="M 201.5,453.5 C 241.574,454.778 270.074,473.445 287,509.5C 298.318,541.294 294.318,570.961 275,598.5C 264.358,608.809 254.025,619.476 244,630.5C 237.294,640.785 237.628,651.118 245,661.5C 254.885,674.373 267.718,682.873 283.5,687C 292.138,688.884 300.804,690.55 309.5,692C 257.972,689.936 211.306,673.936 169.5,644C 142.547,624.047 124.713,597.88 116,565.5C 107.622,521.247 122.456,487.414 160.5,464C 173.539,457.491 187.206,453.991 201.5,453.5 Z"/></g>
<g><path style="opacity:0.973" fill="#262726" d="M 1655.5,550.5 C 1659.14,566.078 1662.98,581.744 1667,597.5C 1673.99,627.82 1692.16,647.987 1721.5,658C 1739.93,663.607 1758.59,668.274 1777.5,672C 1758.59,675.726 1739.93,680.393 1721.5,686C 1699.44,692.732 1683.6,706.565 1674,727.5C 1665.82,748.887 1659.82,770.887 1656,793.5C 1652.43,775.668 1648.1,758.001 1643,740.5C 1635,713.166 1617.5,694.999 1590.5,686C 1572.07,680.392 1553.4,675.725 1534.5,672C 1553.4,668.275 1572.07,663.608 1590.5,658C 1617.5,649.001 1635,630.834 1643,603.5C 1648.25,586.072 1652.42,568.405 1655.5,550.5 Z"/></g>
<g><path style="opacity:0.924" fill="#262726" d="M 1202.5,740.5 C 1209.39,739.901 1216.06,740.735 1222.5,743C 1227.84,747.196 1230.18,752.696 1229.5,759.5C 1224.46,759.827 1219.46,759.494 1214.5,758.5C 1212.29,751.933 1208.29,750.433 1202.5,754C 1199.97,756.747 1199.97,759.413 1202.5,762C 1209.01,763.876 1215.34,766.21 1221.5,769C 1228.39,778.116 1227.73,786.782 1219.5,795C 1207.4,803.747 1195.56,803.58 1184,794.5C 1181.58,790.149 1180.41,785.483 1180.5,780.5C 1185.51,780.334 1190.51,780.501 1195.5,781C 1198.1,789.147 1202.93,790.647 1210,785.5C 1212.1,782.989 1211.94,780.656 1209.5,778.5C 1203.34,776.768 1197.34,774.602 1191.5,772C 1189.27,770.773 1187.77,768.939 1187,766.5C 1184.77,753.285 1189.93,744.619 1202.5,740.5 Z"/></g>
<g><path style="opacity:0.934" fill="#262726" d="M 1410.5,740.5 C 1415.51,740.334 1420.51,740.501 1425.5,741C 1436.14,745.081 1441.14,752.915 1440.5,764.5C 1440.28,786.326 1429.45,798.66 1408,801.5C 1392.84,800.344 1385.34,792.177 1385.5,777C 1385.82,759.148 1394.16,746.981 1410.5,740.5 Z M 1413.5,752.5 C 1417.99,752.161 1421.49,753.827 1424,757.5C 1427.39,768.31 1425.23,777.81 1417.5,786C 1410.22,790.448 1404.72,788.948 1401,781.5C 1398.66,768.854 1402.83,759.188 1413.5,752.5 Z"/></g>
<g><path style="opacity:0.933" fill="#262726" d="M 1273.5,741.5 C 1278.17,741.5 1282.83,741.5 1287.5,741.5C 1290.74,760.916 1294.4,780.25 1298.5,799.5C 1293.87,800.662 1289.2,800.828 1284.5,800C 1283.14,795.638 1282.47,791.138 1282.5,786.5C 1276.46,786.171 1270.46,786.504 1264.5,787.5C 1262.5,791.5 1260.5,795.5 1258.5,799.5C 1253.88,800.493 1249.21,800.827 1244.5,800.5C 1253.89,780.721 1263.56,761.055 1273.5,741.5 Z M 1276.5,760.5 C 1277.73,761.152 1278.39,762.319 1278.5,764C 1279.11,768.188 1279.78,772.355 1280.5,776.5C 1276.82,776.665 1273.15,776.499 1269.5,776C 1272.52,771.124 1274.86,765.957 1276.5,760.5 Z"/></g>
<g><path style="opacity:0.935" fill="#262726" d="M 1329.5,741.5 C 1334.17,741.5 1338.83,741.5 1343.5,741.5C 1341.28,757.183 1338.94,772.85 1336.5,788.5C 1344.5,788.5 1352.5,788.5 1360.5,788.5C 1360.16,792.228 1359.49,795.895 1358.5,799.5C 1345.85,800.499 1333.18,800.832 1320.5,800.5C 1323.39,780.817 1326.39,761.15 1329.5,741.5 Z"/></g>
<g><path style="opacity:0.936" fill="#262726" d="M 1469.5,741.5 C 1474.87,741.172 1480.21,741.505 1485.5,742.5C 1489.97,753.924 1494.64,765.257 1499.5,776.5C 1501.82,764.89 1503.82,753.224 1505.5,741.5C 1510.17,741.5 1514.83,741.5 1519.5,741.5C 1516.39,761.151 1513.39,780.818 1510.5,800.5C 1504.79,800.829 1499.13,800.495 1493.5,799.5C 1489.09,788.354 1484.42,777.354 1479.5,766.5C 1477.39,777.49 1475.39,788.49 1473.5,799.5C 1468.83,800.833 1464.17,800.833 1459.5,799.5C 1462.84,780.137 1466.17,760.804 1469.5,741.5 Z"/></g>
</svg>
